<svg xmlns="http://www.w3.org/2000/svg" width="1030" height="320" fill="none"><path fill="#15245E" d="M296.4.9a46.5 46.5 0 1 1-.1 93 46.5 46.5 0 0 1 0-93Z"/><path fill="#15245E" fill-rule="evenodd" d="M160.8 78.2A160.1 160.1 0 0 0 6.8 282H320A160.2 160.2 0 0 0 166 78.3h-5.2Z" clip-rule="evenodd"/><path fill="#15245E" d="M453 106.9A317.2 317.2 0 0 0 429 1.7l-11.8-.6L406 .9c-3.7 0-7.5 0-11.2.2-4.4.1-8.6.4-13 .7a318.9 318.9 0 0 0-23.9 141.8l.5 7.2a297 297 0 0 1 35-3.2v-.5a313.1 313.1 0 0 1-.4-37 273 273 0 0 0 26.3 0 339 339 0 0 1-.4 37v.5c11.4.4 22.7 1.5 33.7 3.1l.5-6.8c.4-6.2.5-12.6.5-19l-.6-18Zm-47-18.2-11.5-.2c2.2-19.3 6-38 11.4-56 5.5 18 9.3 36.7 11.4 56-3.7.2-7.5.2-11.4.2ZM845.9 282V167H872l3 20a27 27 0 0 1 27.2-21.8c17 0 27 11.6 27 31.4V282h-31.8v-78c0-8.4-2.9-12.5-8.5-12.5-7.3 0-11.1 6.8-11.1 18.9V282h-32Zm-48.7-115v115h32V167h-32Zm19.6-45-2-.1c-.6-.2-1.2-.2-1.8-.2-.6 0-1.4 0-2 .2a17 17 0 0 0-16.4 17.3c0 9.7 6.8 16.8 16.4 17.6l2 .1h1.9l1.9-.3a17.2 17.2 0 0 0 14.6-17.4 17 17 0 0 0-14.6-17.1ZM696.4 282V167h26.3l3 20a27 27 0 0 1 27.1-21.8c17 0 27 11.6 27 31.4V282h-31.7v-78c0-8.4-3-12.5-8.6-12.5-7.2 0-11 6.8-11 18.9V282h-32ZM684 165.8l-1 35a20.9 20.9 0 0 0-8.5-1.6c-11.5 0-17.6 7.7-17.6 22.3V282h-32V167h25.9l3.1 22.5a29.3 29.3 0 0 1 10-18.9 24 24 0 0 1 15.6-5c1.6 0 3 0 4.6.2Zm-73.2 92.7c-1.1 1-2.3 1.2-3.9 1.2-2.9 0-4.2-1.8-4.2-5.5l.4-53.3c0-23.9-12-35.7-36.5-35.7-23 0-37.7 14.1-38.3 35.9l28.5 4.8c-.6-10.9 1.8-16.7 8-16.7 5.2 0 7.7 3.7 7.7 10.7v15.5c-2.7-.7-6-1.1-9.7-1.1-23.3 0-38.1 13.6-38.1 36.4 0 20 10.9 32.7 28 32.7 10.7 0 19.7-6 22.8-14.3a21.5 21.5 0 0 0 21.3 14.5c5.6 0 11-1.3 15-4l-1-21Zm-38.3-9.3c0 8.2-3.6 12.8-9.3 12.8-5.6 0-9.1-5.3-9.1-13.6 0-10.3 4.7-16 13.6-16 1.8 0 3.6.5 4.7.7v16.1h.1Zm-94.8 11.4c-8.1 0-12.4-10.2-12.2-29.5h49c.9-7 1.3-12.8 1.3-17.5 0-30-14-48.4-37.7-48.4-27 0-42.8 21.7-42.8 59.3 0 37.5 15.4 59.3 42.4 59.3 20.2 0 33.8-13.1 37.2-35.6l-27.2-5.3c-.9 11.7-4.3 17.7-10 17.7Zm0-72.5c6.4 0 9.7 7 9.7 20.7 0 2.7 0 3.7-.2 4.8h-21.5c.7-16.4 4.8-25.5 12-25.5Zm-46.3 66.7L427 282h-70.6V164.7c10.8-1.6 21.7-2.8 32.8-3.3v93.2h42v.2ZM683.8 34.2c12.4 0 21.7 8 24.7 20.7 4.2-12.8 14.2-20.7 26.6-20.7 17 0 26.7 11 26.7 30.2v86.5h-31.7V73.5c0-8.9-3-13-8.6-13-7 0-10.6 6.2-10.6 18.7v71.7h-31.7V73.4c0-8.9-3-13-8.6-13-7 0-10.4 6.2-10.4 18.9v71.5h-31.9V36h26.3l2.9 20.2c3-13.6 12.9-22 26.3-22Zm-109.8 0c-27.4 0-42.8 21.3-42.8 59.3s15.4 59.3 42.8 59.3 43-21.3 43-59.3-15.6-59.3-43-59.3Zm0 95.4c-8.2 0-11.5-9.7-11.5-36.1C562.5 67 565.6 57 574 57s11.5 9.7 11.5 36.4c0 26.6-3.1 36.1-11.5 36.1Zm-63.6-3.5c3.6 0 6.6-1.1 10.2-4L525 145a39.4 39.4 0 0 1-23.5 7.7c-19 0-30-11.4-30-31.4v-62h-9V35.8h9v-22l31.7-5v27h19v23.4h-19v58c0 6.2 2.1 9 7.3 9Zm481.7 124h-18.3c-5.2 0-8.1-1.7-8.1-5.4 0-2 1.1-3.9 2.9-5.4 3.9 1.1 8 1.5 12.7 1.5 11.7 0 21.2-3.4 28.7-10.4s11.1-16.1 11.1-27.3c0-8.4-2.5-16.2-7-22.5a26.7 26.7 0 0 0 15.2-21.6l-24.3-6.8a36.5 36.5 0 0 1-3.6 17.5c-6.1-3-13-4.5-20.2-4.5-23.6 0-39.7 15.1-39.7 38 0 13.6 5.9 25 16.7 31.6-10.2 4.3-16 11.8-16 21.1s5.2 16.3 14 19.4c-11.9 1.7-19.7 9.5-19.7 20.2 0 15.7 16.3 25.4 41.6 25.4 30.6 0 50.4-15.3 50.4-39.6.2-19.3-13.4-31.2-36.4-31.2Zm-10.8-65c6 0 9.3 6.2 9.3 18 0 11.9-3.2 17.7-9.3 17.7-6.1 0-9.4-5.8-9.4-17.6 0-11.9 3.3-18 9.4-18Zm-1 114.6c-11.8 0-18.6-4-18.6-11.4 0-5.6 4.3-9.5 10.7-9.5h17.4c7.3 0 11.1 3.2 11.1 8.6 0 7.5-7.8 12.3-20.6 12.3Z"/></svg>