<svg xmlns="http://www.w3.org/2000/svg" width="752" height="197" fill="none"><path fill="#184BC8" d="M68.2 133.2a223.5 223.5 0 0 0-17-74.2 232.8 232.8 0 0 0-33.4 0A223.3 223.3 0 0 0 1.3 164.3c8-1.3 16.3-2 24.7-2.4v-.3a228.6 228.6 0 0 1-.3-26 220.7 220.7 0 0 0 18.6 0 217 217 0 0 1-.3 26v.3c8 .3 16 1 23.8 2.2a229.6 229.6 0 0 0 .4-30.8ZM35 120.4c-2.8 0-5.5 0-8.1-.2a223 223 0 0 1 8-39.5c3.9 12.7 6.6 26 8.2 39.5l-8.1.2Zm194.7-38.5c8.8 0 15.4 5.6 17.4 14.5 3-9 10.1-14.5 19-14.5 12 0 18.9 7.8 18.9 21.3v61h-22.5v-54.6c0-6.3-2-9.1-6-9.1-5 0-7.6 4.3-7.6 13.1v50.7h-22.5v-54.7c0-6.3-2-9.1-6-9.1-5 0-7.4 4.3-7.4 13.3v50.5h-22.6V83H209l2 14.3c2.1-9.6 9.2-15.5 18.7-15.5Zm-77.1 0c-19.4 0-30.3 15-30.3 41.8 0 26.8 10.9 41.8 30.3 41.8s30.4-15 30.4-41.8c0-26.8-11-41.8-30.4-41.8Zm0 67.3c-5.8 0-8.2-7-8.2-25.5 0-18.6 2.3-25.6 8.2-25.6 6 0 8.2 6.8 8.2 25.6s-2.3 25.5-8.2 25.5Zm-44.3-2.4c2.5 0 4.6-.8 7.2-3l3 16.3a28 28 0 0 1-16.7 5.4c-13.4 0-21.1-8-21.1-22V99.6h-6.4V83.2h6.4V67.6l22.4-3.5v19h13.5v16.5H103v41c0 4.2 1.5 6.2 5.2 6.2Z"/><path fill="#184BC8" fill-rule="evenodd" d="M512.6.9c-20.2 0-38 10.2-48.5 25.8H331c-6.3 0-11.3 5-11.3 11.3v146.8c0 6.3 5 11.3 11.2 11.3h409.5c6.2 0 11.3-5 11.3-11.3V38c0-6.2-5-11.3-11.3-11.3H601a58.3 58.3 0 0 0-55.1-15.4A58.2 58.2 0 0 0 512.6.9Zm-6 64.3c0-7.1-5.4-12.1-12.8-12.1s-12.7 5-12.7 12c0 7.1 5.3 12.3 12.7 12.3 7.4 0 12.8-5.2 12.8-12.2Zm-23.8 98.7H505V84.3h-22.2V164Zm102.8-98.7c0-7.1-5.3-12.1-12.7-12.1-7.4 0-12.7 5-12.7 12 0 7.1 5.3 12.3 12.7 12.3 7.4 0 12.7-5.2 12.7-12.2ZM562 163.9h22.2V84.3H562V164ZM621.8 83c19 0 29.9 14.8 29.9 41 0 26.3-10.9 41-30 41-19 0-29.6-14.7-29.6-41 0-26.2 10.7-41 29.7-41Zm0 66c5.8 0 8-6.6 8-25 0-18.7-2.2-25.1-8-25.1s-8 6.9-8 25.1c0 18 2.3 25 8 25Zm37.9-64.8h18.2l2 13.9a18.8 18.8 0 0 1 19-15.1c11.7 0 18.6 8 18.6 21.7v59h-22V110c0-5.9-2-8.7-6-8.7-5 0-7.6 4.7-7.6 13V164h-22.2V84.3Zm-114.5 62.5c2.6 0 4.6-.8 7.1-2.9l3 15.9A27.5 27.5 0 0 1 539 165c-13.3 0-20.8-7.8-20.8-21.7v-42.9h-6.3V84.3h6.3V69.1l22-3.5v18.7h13.2v16.2h-13.2v40.1c0 4.3 1.4 6.2 5 6.2ZM472 84.3V164h-18l-2-13.7c-2.6 9.4-9.2 15-18.5 15-11.8 0-18.8-8.2-18.8-22V84.4h22v54c0 5.6 2 8.8 6 8.8 4.5 0 7.3-4.6 7.3-13V84.4h22Zm-78-6.7h19.8V58.9h-62.3v18.7h19.8v86.3H394V77.6Z" clip-rule="evenodd"/></svg>