<svg xmlns="http://www.w3.org/2000/svg" width="1339" height="219" fill="none"><path fill="#15245E" d="M188.6 0a29.7 29.7 0 1 1 0 59.4 29.7 29.7 0 0 1 0-59.4Z"/><path fill="#15245E" fill-rule="evenodd" d="M102 49.4a102.2 102.2 0 0 0-98.3 130h200a102.3 102.3 0 0 0-98.3-130h-3.3Z" clip-rule="evenodd"/><path fill="#15245E" d="M354.7 137.4a303.2 303.2 0 0 0-23-100.5 210 210 0 0 0-11.2-.6l-10.7-.2-10.7.2c-4.2.1-8.3.4-12.5.7a304.7 304.7 0 0 0-22.8 135.5l.5 7a284 284 0 0 1 33.4-3.2v-.5a299.1 299.1 0 0 1-.4-35.3 261.7 261.7 0 0 0 25.2 0 323.5 323.5 0 0 1-.4 35.3v.5c10.9.4 21.7 1.4 32.2 3l.5-6.5c.4-6 .5-12 .5-18.2-.2-5.9-.3-11.5-.6-17.2Zm-45-17.4c-3.6 0-7.3 0-10.9-.2 2.1-18.4 5.8-36.3 10.9-53.5a295 295 0 0 1 10.9 53.5c-3.6.2-7.2.2-10.9.2Zm854 61.7v-110h25l2.8 19.2c3.3-13 13-20.8 26-20.8 16.3 0 25.8 11 25.8 30v81.6H1213v-74.5c0-8-2.8-12-8.2-12-6.8 0-10.5 6.6-10.5 18v68.5h-30.6Zm-46.5-109.9v109.9h30.5v-110h-30.5Zm18.6-43-1.8-.1-1.8-.1h-1.9c-9.1.9-15.6 7.6-15.6 16.7 0 9.2 6.5 16 15.6 16.8h3.8l1.8-.2c8.3-1.5 14-8 14-16.6 0-8.5-5.8-15-14-16.4Zm-114.9 152.9v-110h25l2.8 19.2c3.3-13 13-20.8 26-20.8 16.3 0 25.8 11 25.8 30v81.6h-30.3v-74.5c0-8-2.8-12-8.2-12-6.8 0-10.5 6.6-10.5 18v68.5h-30.6Zm-11.9-111-1 33.4a20 20 0 0 0-8-1.5c-11 0-17 7.4-17 21.3v57.8h-30.4v-110h24.7l3 21.6a28 28 0 0 1 9.5-18 23 23 0 0 1 14.9-4.8c1.5 0 2.8 0 4.3.2Zm-70 88.6c-1 .9-2.1 1-3.6 1-2.8 0-4.1-1.6-4.1-5.1l.4-51c0-22.8-11.5-34.1-35-34.1-21.8 0-36 13.5-36.5 34.3l27.3 4.6c-.6-10.4 1.7-16 7.6-16 5 0 7.4 3.6 7.4 10.3V118c-2.6-.7-5.8-1.1-9.3-1.1-22.3 0-36.4 13-36.4 34.8 0 19 10.4 31.3 26.8 31.3 10.2 0 18.8-5.7 21.7-13.7a20.6 20.6 0 0 0 20.4 13.9c5.4 0 10.6-1.3 14.3-4l-1-20Zm-36.5-9c0 7.9-3.5 12.3-9 12.3-5.3 0-8.6-5-8.6-13 0-9.8 4.5-15.2 13-15.2 1.7 0 3.4.4 4.5.6v15.4Zm-90.6 11c-7.8 0-12-9.8-11.7-28.2H847c.9-6.7 1.3-12.2 1.3-16.7 0-28.7-13.4-46.3-36-46.3-25.8 0-41 20.8-41 56.7 0 35.8 14.8 56.7 40.6 56.7 19.3 0 32.3-12.6 35.5-34.1l-26-5c-.8 11.2-4.1 16.9-9.5 16.9Zm0-69.3c6 0 9.3 6.7 9.3 19.8 0 2.6 0 3.5-.2 4.6h-20.6C801 100.7 805 92 811.9 92Zm-44.3 63.7-4.1 26H696V39.2a322 322 0 0 1 31.3-3v119.4h40.2ZM575.2 68c11.9 0 20.8 7.5 23.6 19.7 4.1-12.2 13.6-19.8 25.5-19.8 16.3 0 25.5 10.6 25.5 29v82.6h-30.3v-74c0-8.5-2.8-12.4-8.2-12.4-6.7 0-10.2 6-10.2 17.8v68.6h-30.3v-74c0-8.6-2.8-12.5-8.2-12.5-6.7 0-9.9 6-9.9 18v68.4h-30.5V69.6h25.1l2.8 19.3c2.8-13 12.3-21 25.1-21Zm-104.9 0c-26.2 0-40.9 20.3-40.9 56.6s14.7 56.7 40.9 56.7 41.1-20.4 41.1-56.7c0-36.3-14.9-56.7-41.1-56.7Zm0 91.1c-7.8 0-11-9.3-11-34.5s3-34.8 11-34.8 11 9.3 11 34.8c0 25.4-3 34.5-11 34.5Zm-60.8-3.3c3.5 0 6.3-1 9.8-3.9l4.1 22a37.7 37.7 0 0 1-22.5 7.3c-18.2 0-28.6-10.9-28.6-30V92h-8.7V69.5h8.7v-21l30.3-4.9v25.8h18.2v22.4h-18.2v55.4c0 6 2 8.6 6.9 8.6Zm894-4.5H1286c-5 0-7.8-1.7-7.8-5.2 0-2 1-3.7 2.8-5.2 3.7 1 7.5 1.5 12 1.5 11.3 0 20.3-3.3 27.5-10a34.2 34.2 0 0 0 10.7-26.1 37 37 0 0 0-6.8-21.5 25.5 25.5 0 0 0 14.5-20.6l-23.2-6.5a34.9 34.9 0 0 1-3.5 16.7A44 44 0 0 0 1293 70c-22.5 0-37.9 14.5-37.9 36.3a34 34 0 0 0 16 30.2c-9.8 4-15.3 11.3-15.3 20.2 0 8.9 5 15.6 13.3 18.5-11.3 1.7-18.8 9-18.8 19.3 0 15 15.6 24.3 39.8 24.3 29.3 0 48.2-14.6 48.2-37.8.1-18.5-12.9-29.8-34.8-29.8ZM1293 89.2c5.8 0 9 5.9 9 17.2 0 11.3-3 16.9-9 16.9-5.8 0-8.8-5.6-8.8-17 0-11.2 3-17.1 8.8-17.1Zm-.8 109.5c-11.4 0-17.9-4-17.9-11 0-5.3 4.2-9 10.3-9h16.7c6.9 0 10.5 3 10.5 8.2 0 7.2-7.5 11.8-19.6 11.8Z"/></svg>