<svg xmlns="http://www.w3.org/2000/svg" width="781" height="170" fill="none"><path fill="#fff" d="M68.2 108a223.5 223.5 0 0 0-17-74.2 232.6 232.6 0 0 0-33.4.2A223.3 223.3 0 0 0 1.3 139c8-1.2 16.3-2 24.7-2.3v-.4a228.6 228.6 0 0 1-.3-26 220.7 220.7 0 0 0 18.6 0 217 217 0 0 1-.3 26v.4c8 .3 16 1 23.8 2.2a229.6 229.6 0 0 0 .4-30.8ZM35 95.3l-8.1-.1a223 223 0 0 1 8-39.5c3.9 12.7 6.6 26 8.2 39.5l-8.1.1Zm194.7-38.6c8.8 0 15.4 5.6 17.4 14.6 3-9 10.1-14.6 19-14.6 12 0 18.9 7.9 18.9 21.3v61.1h-22.5V84.5c0-6.3-2-9.2-6-9.2-5 0-7.6 4.4-7.6 13.2V139h-22.5V84.5c0-6.3-2-9.2-6-9.2-5 0-7.4 4.4-7.4 13.3v50.5h-22.6v-81H209l2 14.2c2.1-9.6 9.2-15.6 18.7-15.6Zm-77.1 0c-19.4 0-30.3 15.1-30.3 41.9 0 26.8 10.9 41.8 30.3 41.8s30.4-15 30.4-41.8c0-26.8-11-41.9-30.4-41.9Zm0 67.4c-5.8 0-8.2-7-8.2-25.5 0-18.6 2.3-25.7 8.2-25.7 6 0 8.2 7 8.2 25.7s-2.3 25.5-8.2 25.5Zm-44.3-2.5c2.5 0 4.6-.8 7.2-2.8l3 16.2a28 28 0 0 1-16.7 5.4c-13.4 0-21.1-8-21.1-22.1V74.5h-6.4V58h6.4V42.5l22.4-3.6V58h13.5v16.5H103v40.9c0 4.3 1.5 6.2 5.2 6.2Z"/><path fill="#fff" fill-rule="evenodd" d="M330.5.6c-6.2 0-11.3 5-11.3 11.3v146.8c0 6.2 5 11.3 11.3 11.3h381.8a11 11 0 0 0 8.8-4.4l57.4-73.4c3.2-4 3.2-9.8 0-13.9L721.1 5a11.3 11.3 0 0 0-8.8-4.3H330.5Zm147.2 26.2v111h22.2V88.2c0-8.3 2.6-13 7.7-13 3.9 0 6 2.8 6 8.6v54h22V78.6c0-13.8-6.7-21.6-18.6-21.6-8.2 0-14.6 4.5-17.1 11.9V26.8h-22.2ZM704 120.5a6 6 0 0 1-3.4 1c-2.4 0-3.5-1.3-3.5-4V26.8h-22v93.5c0 12.4 6 18.6 17.8 18.6 4.4 0 9-1.1 12.2-3l-1-15.4ZM667.7 98c0-26.3-10.8-41-29.9-41-19 0-29.7 14.7-29.7 41 0 26.2 10.7 41 29.7 41s30-14.8 30-41ZM646 98c0 18.4-2.2 25-8 25-5.7 0-8-7-8-25 0-18.3 2.1-25.2 8-25.2 5.8 0 8 6.5 8 25.2Zm-73-41c19 0 29.9 14.7 29.9 41 0 26.2-10.9 41-29.9 41s-29.7-14.8-29.7-41c0-26.3 10.7-41 29.7-41Zm0 66c5.8 0 8-6.6 8-25 0-18.7-2.2-25.2-8-25.2s-8 7-8 25.2c0 18 2.3 25 8 25Zm-127.8 16c-18.2 0-28.7-15-28.7-41.2C416.4 72.2 427 57 445 57c15.3 0 24.6 9.7 25.4 26.7l-19 3.1c0-9.4-2-13.7-5.9-13.7-5.2 0-7.5 7.1-7.5 24.7s2.3 24.9 7.5 24.9c3.8 0 5.7-4.4 6.1-13.9l19 4.1c-1.5 16.4-11 26.1-25.6 26.1Zm-42.4-8.2a28 28 0 0 0 8.8-21.2c0-6.3-1.6-12-4.7-17-3.2-5-9.5-10.8-19-17.4a60.4 60.4 0 0 1-11.8-9.6 12 12 0 0 1-2.7-7c0-5.7 3.4-9.4 8.6-9.4 5.9 0 9.6 6.2 9.6 15.8l19.4-4.3c-.7-18.4-11.4-29.2-29.1-29.2a30 30 0 0 0-21.9 8.2 28 28 0 0 0-8.5 21 31 31 0 0 0 4.4 16.2c3 4.7 9.2 10.2 18.4 16.5a58.8 58.8 0 0 1 12.3 10.4c1.9 2.4 2.8 5 2.8 7.7 0 6.1-3.3 9.6-9 9.6-7 0-11.4-7.2-11.3-18.4l-19.3 5.3c.2 19 12.4 31 30.8 31a31 31 0 0 0 22.2-8.2Z" clip-rule="evenodd"/></svg>