<svg xmlns="http://www.w3.org/2000/svg" width="1242" height="320" fill="none"><path fill="#fff" d="M110.2 210.9A362.7 362.7 0 0 0 82.7 90.5a377.8 377.8 0 0 0-54.3.1A362.4 362.4 0 0 0 1.6 261.1c13.1-2 26.5-3.2 40.1-3.7v-.6a371.1 371.1 0 0 1-.5-42.3 358.2 358.2 0 0 0 30.2 0 352.2 352.2 0 0 1-.5 42.3v.6c13 .5 26 1.7 38.7 3.5a370.5 370.5 0 0 0 .6-50Zm-54-20.8c-4.4 0-8.7-.1-13-.3 2.4-22 6.8-43.4 13-64.1 6.3 20.7 10.7 42 13.2 64.1l-13.1.3Zm316.1-62.5c14.3 0 25 9 28.3 23.6 5-14.5 16.4-23.6 30.7-23.6 19.5 0 30.7 12.7 30.7 34.6v99h-36.4v-88.6c0-10.2-3.4-14.8-10-14.8-8 0-12.1 7-12.1 21.3v82.2H367v-88.7c0-10.2-3.4-14.8-9.9-14.8-8 0-12 7-12 21.6v82h-36.6V129.6h30.2l3.4 23.1c3.3-15.6 14.8-25.2 30.1-25.2Zm-125.1 0c-31.5 0-49.2 24.4-49.2 67.9 0 43.4 17.7 67.9 49.2 67.9 31.5 0 49.4-24.5 49.4-68 0-43.4-18-67.8-49.4-67.8Zm0 109.2c-9.4 0-13.3-11.2-13.3-41.3 0-30.2 3.6-41.6 13.3-41.6 9.6 0 13.2 11.1 13.2 41.6 0 30.4-3.6 41.3-13.2 41.3Zm-72-3.8c4.2 0 7.5-1.4 11.7-4.7l5 26.2c-7.3 5.5-17 8.9-27.1 8.9-21.8 0-34.4-13-34.4-35.9v-71H120v-26.8h10.4v-25.3l36.5-5.7v31h21.8v26.7H167v66.4c0 7 2.3 10.1 8.3 10.1Zm864.2-37.5c0 30.4-3.6 41.4-13.3 41.4-9.3 0-13.2-11.5-13.2-41.4 0-30.2 3.6-41.6 13.3-41.6 9.6 0 13.2 10.7 13.2 41.6Z"/><path fill="#fff" fill-rule="evenodd" d="M773.4 30.4a94.6 94.6 0 0 1 123.2-13 95.1 95.1 0 0 1 74.5 13h253.3c10.1 0 18.3 8.1 18.3 18.2v253.6c0 10.1-8.2 18.3-18.3 18.3H537a18.3 18.3 0 0 1-18.3-18.3V48.6c0-10 8.2-18.2 18.3-18.2h236.4Zm39.5 47.5c12.2 0 21 8.4 21 20 0 11.8-8.8 20.4-21 20.4s-21-8.6-21-20.3c0-11.7 8.8-20 21-20Zm18.5 183.4h-36.7V129.7h36.6v131.6ZM944.6 78c12.3 0 21.1 8.4 21.1 20 0 11.8-8.8 20.4-21 20.4-12.3 0-21.1-8.6-21.1-20.3 0-11.7 8.8-20 21-20Zm18.5 183.4h-36.7V129.7h36.7v131.6Zm112.4-65.8c0-43.4-18-67.9-49.4-67.9-31.5 0-49.2 24.5-49.2 68 0 43.4 17.7 67.8 49.2 67.8 31.4 0 49.4-24.4 49.4-67.9Zm44-65.8h-30.2v131.6h36.6v-82c0-13.7 4.5-21.5 12.8-21.5 6.5 0 9.9 4.7 9.9 14.3v89.2h36.4v-97.8c0-22.6-11.4-35.9-31-35.9a31 31 0 0 0-31.2 25l-3.4-22.9Zm-209.4 98.6a17.4 17.4 0 0 1-11.7 4.7c-6 0-8.4-3.2-8.4-10.2v-66.3h22v-26.8h-22v-31l-36.4 5.8v25.2h-10.4v26.8h10.4v71c0 22.9 12.5 35.9 34.3 35.9a46 46 0 0 0 27.1-8.8l-5-26.3Zm-133.9 33V129.7h-36.4v82.5c0 13.7-4.7 21.3-12.2 21.3-6.5 0-10-5.2-10-14.6v-89.2h-36.3v97.5c0 22.7 11.7 36.2 31.2 36.2 15.3 0 26.2-9.1 30.4-24.7l3.4 22.6h29.9Zm-97-142.8h-32.7v142.8H609V118.5h-32.8v-31h103v31Z" clip-rule="evenodd"/></svg>