<svg xmlns="http://www.w3.org/2000/svg" width="694" height="198" fill="none"><path fill="#fff" fill-rule="evenodd" d="M328.8 41.7a11.3 11.3 0 0 0-8.7 11V186c0 6.2 5 11.2 11.3 11.2H682c6.2 0 11.3-5 11.3-11.2V52.7c0-5.2-3.7-9.8-8.7-11l-172-40.3a27 27 0 0 0-12 0L328.8 41.7Zm51.1 80.7h21.2v44.4H424V60.6h-23v43h-21v-43h-22.8v106.2H380v-44.4Zm82.7-37.3c19.2 0 30.2 15 30.2 41.5s-11 41.4-30.2 41.4-30-15-30-41.4c0-26.6 10.8-41.5 30-41.5Zm0 66.7c5.9 0 8-6.7 8-25.2 0-19-2.1-25.5-8-25.5s-8.1 7-8.1 25.5c0 18.2 2.4 25.2 8 25.2ZM557 99.5c-2-8.9-8.5-14.4-17.3-14.4-9.4 0-16.3 5.9-18.4 15.4l-2-14.1h-18.5v80.4h22.4v-50.1c0-8.9 2.4-13.2 7.3-13.2 4 0 6 2.9 6 9v54.3H559v-50.3c0-8.7 2.5-13 7.5-13 4 0 6 2.9 6 9v54.3h22.2v-60.6c0-13.3-6.8-21.1-18.7-21.1-8.7 0-15.7 5.5-18.8 14.4Zm82 40c-.6 8.2-3 12.3-7 12.3-5.6 0-8.7-7.1-8.5-20.6h34.3c.7-5 1-9 1-12.3 0-21-9.9-33.8-26.4-33.8-19 0-30 15.6-30 41.5 0 26.2 10.8 41.4 29.7 41.4 14.1 0 23.7-9.2 26-25l-19-3.6Zm-15.3-20.6c.4-11.4 3.3-17.8 8.4-17.8 4.4 0 6.8 5 6.8 14.5l-.1 3.3h-15.1Z" clip-rule="evenodd"/><path fill="#fff" d="M68.2 135.4a223.5 223.5 0 0 0-17-74.2 233 233 0 0 0-33.4 0A223.3 223.3 0 0 0 1.3 166.5c8-1.3 16.3-2 24.7-2.4v-.3a228.7 228.7 0 0 1-.3-26 220.7 220.7 0 0 0 18.6 0 217 217 0 0 1-.3 26v.3c8 .3 16 1 23.8 2.2a229.2 229.2 0 0 0 .4-30.8ZM35 122.6c-2.8 0-5.5 0-8.1-.2a223 223 0 0 1 8-39.5c3.9 12.7 6.6 26 8.2 39.5l-8.1.2ZM229.7 84c8.8 0 15.4 5.7 17.4 14.7 3-9 10.1-14.6 19-14.6 12 0 18.8 7.8 18.8 21.3v61h-22.4v-54.6c0-6.3-2-9.1-6.1-9.1-5 0-7.5 4.3-7.5 13.1v50.7h-22.5v-54.7c0-6.3-2-9.1-6-9.1-5 0-7.4 4.3-7.4 13.3v50.5h-22.6V85.4H209l2 14.2c2.1-9.6 9.2-15.5 18.6-15.5Zm-77.1 0c-19.4 0-30.3 15.1-30.3 42 0 26.7 10.9 41.7 30.3 41.7s30.4-15 30.4-41.8c0-26.8-11-41.8-30.4-41.8Zm0 67.4c-5.8 0-8.2-7-8.2-25.5 0-18.6 2.3-25.6 8.2-25.6 6 0 8.2 6.9 8.2 25.6 0 18.8-2.3 25.5-8.2 25.5Zm-44.4-2.4c2.6 0 4.7-.8 7.3-2.9l3 16.2a28 28 0 0 1-16.7 5.4c-13.4 0-21.1-8-21.1-22v-43.8h-6.4V85.4h6.4V69.8l22.4-3.5v19h13.5V102H103v40.8c0 4.3 1.5 6.3 5.1 6.3Z"/></svg>