<svg xmlns="http://www.w3.org/2000/svg" width="980" height="160" fill="none"><path fill="#15245E" d="M138.8.2a21.7 21.7 0 1 1 0 43.4 21.7 21.7 0 0 1 0-43.4Z"/><path fill="#15245E" fill-rule="evenodd" d="M75.5 36.3a74.7 74.7 0 0 0-72 95h146.3a74.8 74.8 0 0 0-71.9-95h-2.4Z" clip-rule="evenodd"/><path fill="#15245E" d="M260.2 100.7a221.7 221.7 0 0 0-16.8-73.5c-2.8-.2-5.5-.4-8.2-.4l-7.9-.2c-2.6 0-5.2 0-7.8.2-3 0-6 .3-9.1.5a222.8 222.8 0 0 0-16.7 99c0 1.7.2 3.4.4 5 8-1.2 16.1-1.9 24.4-2.2v-.4a219 219 0 0 1-.3-25.8 191.6 191.6 0 0 0 18.4 0 236.8 236.8 0 0 1-.3 25.8v.4c8 .3 15.9 1 23.6 2.2l.3-4.7c.3-4.4.4-8.9.4-13.3l-.4-12.6Zm-33-12.7-7.9-.2a229 229 0 0 1 8-39.1c3.8 12.6 6.5 25.7 8 39.1-2.7.2-5.3.2-8 .2Zm624.4 45V52.7h18.3l2 14a18.9 18.9 0 0 1 19-15.3c12 0 19 8.2 19 22V133h-22.2V78.6c0-5.9-2-8.7-6-8.7-5 0-7.8 4.7-7.8 13.1v50h-22.3Zm-34-80.3V133h22.3V52.7h-22.3Zm13.7-31.4a8 8 0 0 0-1.4-.1l-1.3-.1h-1.4c-6.7.7-11.4 5.6-11.4 12.2a12 12 0 0 0 11.4 12.3h2.7c.5 0 1 0 1.4-.2a12 12 0 0 0 10.2-12 12 12 0 0 0-10.2-12ZM747.2 133V52.7h18.3l2 14a18.8 18.8 0 0 1 19-15.3c12 0 19 8.2 19 22V133h-22.2V78.6c0-5.9-2-8.7-6-8.7-5 0-7.7 4.7-7.7 13.1v50h-22.4Zm-8.6-81.1-.9 24.4c-1.9-.8-3.8-1.1-5.8-1.1-8 0-12.4 5.4-12.4 15.6V133h-22.3V52.7h18.1l2.2 15.7c1-5.9 3.3-10.2 7-13.2 3-2.4 6.6-3.5 10.8-3.5 1.2 0 2.2 0 3.3.2Zm-51.2 64.8c-.8.6-1.6.8-2.7.8-2 0-3-1.3-3-3.8l.3-37.3c0-16.7-8.4-25-25.5-25-16 0-26.4 10-26.8 25.1l20 3.4c-.5-7.6 1.2-11.6 5.5-11.6 3.7 0 5.4 2.5 5.4 7.4v10.8a27 27 0 0 0-6.8-.8c-16.3 0-26.6 9.5-26.6 25.5 0 14 7.6 22.9 19.6 22.9 7.5 0 13.7-4.2 15.9-10a15 15 0 0 0 15 10.2c3.8-.1 7.6-1 10.3-3l-.6-14.7Zm-26.8-6.6c0 5.7-2.5 9-6.5 9s-6.3-3.7-6.3-9.5c0-7.2 3.2-11.2 9.5-11.2 1.2 0 2.4.3 3.2.5V110h.1Zm-66.2 8c-5.7 0-8.7-7.2-8.6-20.6H620c.7-4.9 1-9 1-12.2 0-21-9.8-33.9-26.3-33.9-18.9 0-30 15.2-30 41.5 0 26.2 10.8 41.4 29.7 41.4 14 0 23.6-9.2 26-24.9l-19-3.6c-.7 8.1-3 12.3-7 12.3Zm0-50.7c4.4 0 6.8 5 6.8 14.5 0 2 0 2.6-.2 3.4h-15c.5-11.5 3.3-17.9 8.4-17.9ZM562 114l-3 19h-49.3V29c7.6-1.1 15.2-2 23-2.3V114H562v.1ZM421.4 49.9c8.7 0 15.2 5.5 17.2 14.4 3-8.9 10-14.4 18.7-14.4 11.9 0 18.6 7.7 18.6 21v60.6h-22.1V77.4c0-6.3-2-9.1-6-9.1-5 0-7.5 4.3-7.5 13v50.2h-22.1V77.3c0-6.2-2-9-6-9-5 0-7.3 4.2-7.3 13v50h-22.3V51.2H401l2 14.1c2-9.5 9-15.3 18.4-15.3Zm-76.7 0c-19.2 0-30 14.9-30 41.4 0 26.6 10.8 41.5 30 41.5 19.1 0 30-15 30-41.5S363.8 50 344.7 50Zm0 66.6c-5.7 0-8-6.8-8-25.2s2.1-25.4 8-25.4c5.8 0 8 6.8 8 25.4 0 18.6-2.2 25.2-8 25.2Zm-44.5-2.4a11 11 0 0 0 7.2-2.8l3 16a27.6 27.6 0 0 1-16.5 5.4c-13.3 0-20.9-8-20.9-22V67.5h-6.3V51h6.3V35.6l22.2-3.5V51h13.3v16.3h-13.3v40.5c0 4.4 1.4 6.3 5 6.3Zm653.6-3.3H941c-3.7 0-5.7-1.2-5.7-3.8 0-1.5.8-2.7 2-3.8 2.7.8 5.6 1 8.9 1 8.2 0 14.8-2.3 20-7.2a25 25 0 0 0 7.8-19.1c0-5.8-1.7-11.3-4.9-15.7a18.6 18.6 0 0 0 10.6-15l-17-4.8c0 5.2-.7 9.2-2.5 12.2-4.2-2-9-3.2-14-3.2-16.5 0-27.8 10.6-27.8 26.6 0 9.5 4 17.4 11.7 22-7.2 3-11.3 8.3-11.3 14.8s3.7 11.4 9.8 13.5c-8.2 1.3-13.7 6.7-13.7 14.2 0 11 11.4 17.7 29 17.7 21.4 0 35.3-10.7 35.3-27.6.1-13.5-9.4-21.8-25.4-21.8Zm-7.6-45.4c4.2 0 6.5 4.3 6.5 12.6 0 8.2-2.2 12.3-6.5 12.3s-6.5-4-6.5-12.3 2.2-12.6 6.5-12.6Zm-.7 80c-8.2 0-13-2.8-13-8 0-3.9 3-6.6 7.5-6.6h12.2c5 0 7.7 2.2 7.7 6 0 5.3-5.5 8.7-14.4 8.7Z"/></svg>