<svg xmlns="http://www.w3.org/2000/svg" width="983" height="306" fill="none"><path fill="#15245E" d="M282.4 0a44.4 44.4 0 1 1-.1 88.9 44.4 44.4 0 0 1 .1-88.9Z"/><path fill="#15245E" fill-rule="evenodd" d="M152.8 73.9A153 153 0 0 0 5.6 268.6H305A153 153 0 0 0 157.8 73.9h-5Z" clip-rule="evenodd"/><path fill="#15245E" d="M432.1 101.3A303.2 303.2 0 0 0 409.1.8a210 210 0 0 0-11.2-.6L387.2 0l-10.7.2c-4.2.1-8.3.4-12.5.7a304.7 304.7 0 0 0-22.8 135.5l.5 6.9a284 284 0 0 1 33.4-3.1v-.5a299.1 299.1 0 0 1-.4-35.3 261.7 261.7 0 0 0 25.2 0 323.5 323.5 0 0 1-.4 35.3v.5c10.9.4 21.7 1.4 32.2 3l.5-6.5c.4-6 .5-12.1.5-18.2-.2-5.9-.3-11.5-.6-17.2Zm-45-17.4-10.9-.2c2.1-18.4 5.8-36.3 10.9-53.5A295 295 0 0 1 398 83.7c-3.6.2-7.2.2-10.9.2Zm420.4 184.7V158.7h25.1l2.8 19.1c3.3-13 13-20.8 26-20.8 16.3 0 25.8 11.1 25.8 30v81.6h-30.3v-74.5c0-8-2.8-11.9-8.2-11.9-6.9 0-10.6 6.5-10.6 18v68.4h-30.6ZM761 158.7v109.9h30.5V158.7H761Zm18.7-42.9-1.8-.2-1.8-.1-1.9.1c-9.2.8-15.7 7.5-15.7 16.6 0 9.2 6.5 16 15.7 16.8l1.9.1 1.8-.1 1.8-.2c8.3-1.5 14-8 14-16.6 0-8.5-5.7-14.9-14-16.4Zm-115 152.8V158.7h25.1l2.8 19.1c3.2-13 13-20.8 26-20.8 16.3 0 25.8 11.1 25.8 30v81.6h-30.3v-74.5c0-8-2.8-11.9-8.2-11.9-6.9 0-10.6 6.5-10.6 18v68.4h-30.6Zm-11.8-111-1.1 33.4a20 20 0 0 0-8-1.5c-11 0-16.9 7.4-16.9 21.3v57.8h-30.5V158.7h24.7l3 21.5a28 28 0 0 1 9.5-18 23 23 0 0 1 14.9-4.8c1.6 0 2.9 0 4.4.2Zm-70 88.6c-1.1.9-2.2 1.1-3.7 1.1-2.8 0-4.1-1.7-4.1-5.2l.4-51c0-22.8-11.5-34.1-34.9-34.1-21.9 0-36 13.5-36.6 34.3l27.3 4.6c-.6-10.4 1.7-15.9 7.6-15.9 5 0 7.4 3.5 7.4 10.2V205c-2.6-.7-5.8-1.1-9.3-1.1-22.3 0-36.4 13-36.4 34.8 0 19.1 10.4 31.3 26.8 31.3 10.2 0 18.8-5.7 21.7-13.7a20.6 20.6 0 0 0 20.4 13.9c5.4 0 10.6-1.3 14.3-3.9l-.9-20.1Zm-36.6-8.9c0 7.8-3.5 12.2-8.9 12.2s-8.7-5-8.7-13c0-9.8 4.5-15.2 13-15.2 1.7 0 3.4.4 4.5.6v15.4h.1Zm-90.6 10.9c-7.8 0-11.9-9.8-11.7-28.2h46.8c.9-6.7 1.3-12.2 1.3-16.7 0-28.7-13.4-46.3-36-46.3-25.8 0-40.9 20.8-40.9 56.7 0 35.8 14.7 56.7 40.5 56.7 19.3 0 32.3-12.6 35.5-34.1l-26-5c-.8 11.2-4.1 16.9-9.5 16.9Zm0-69.3c6.1 0 9.3 6.7 9.3 19.8 0 2.6 0 3.5-.2 4.6h-20.6c.7-15.7 4.6-24.4 11.5-24.4Zm-44.3 63.7-4.1 26h-67.4V156.5a322 322 0 0 1 31.3-3.1v89.1h40.2v.1ZM652.6 31.8c11.9 0 20.8 7.6 23.6 19.8 4.1-12.2 13.6-19.8 25.5-19.8 16.3 0 25.5 10.6 25.5 28.9v82.7h-30.3v-74c0-8.5-2.8-12.4-8.2-12.4-6.7 0-10.2 5.9-10.2 17.8v68.6h-30.3V69.3c0-8.5-2.8-12.4-8.2-12.4-6.7 0-9.9 5.9-9.9 18v68.4h-30.5V33.5h25.1l2.8 19.3c2.8-13 12.3-21 25.1-21Zm-104.9 0c-26.2 0-40.9 20.4-40.9 56.7 0 36.3 14.7 56.7 40.9 56.7s41.1-20.4 41.1-56.7c0-36.3-14.9-56.7-41.1-56.7Zm0 91.2c-7.8 0-11-9.3-11-34.5s3-34.8 11-34.8 11 9.3 11 34.8c0 25.4-3 34.5-11 34.5Zm-60.8-3.3c3.5 0 6.3-1.1 9.8-3.9l4.1 21.9a37.7 37.7 0 0 1-22.5 7.4c-18.2 0-28.6-10.9-28.6-30V55.8H441V33.4h8.7V12.3L480 7.5v25.8h18.2v22.4H480v55.4c0 6 2 8.6 6.9 8.6Zm460.4 118.5h-17.5c-5 0-7.8-1.7-7.8-5.2 0-2 1.1-3.7 2.8-5.2 3.7 1.1 7.6 1.5 12.1 1.5 11.2 0 20.3-3.3 27.5-10a34.2 34.2 0 0 0 10.6-26.1 37 37 0 0 0-6.7-21.5 25.5 25.5 0 0 0 14.5-20.6l-23.2-6.5a34.9 34.9 0 0 1-3.5 16.7 44 44 0 0 0-19.3-4.3c-22.5 0-37.9 14.5-37.9 36.3 0 13 5.6 23.9 16 30.2-9.8 4.1-15.4 11.3-15.4 20.2 0 8.9 5 15.6 13.4 18.5-11.3 1.7-18.8 9.1-18.8 19.3 0 15 15.6 24.3 39.8 24.3 29.2 0 48.1-14.6 48.1-37.8.2-18.5-12.8-29.8-34.7-29.8Zm-10.4-62.1c5.8 0 8.9 5.9 8.9 17.2 0 11.3-3 16.9-8.9 16.9-5.8 0-8.9-5.6-8.9-16.9 0-11.3 3.1-17.2 8.9-17.2Zm-.9 109.5c-11.3 0-17.8-3.9-17.8-10.9 0-5.4 4.1-9.1 10.2-9.1h16.7c6.9 0 10.6 3 10.6 8.2 0 7.2-7.5 11.8-19.7 11.8Z"/></svg>