<svg xmlns="http://www.w3.org/2000/svg" width="1266" height="320" fill="none"><path fill="#fff" d="M109.8 193.2A362.8 362.8 0 0 0 82.3 72.8 377.8 377.8 0 0 0 28 73 362.4 362.4 0 0 0 1.2 243.5c13.2-2 26.6-3.3 40.2-3.8v-.6a371.1 371.1 0 0 1-.5-42.2 358.2 358.2 0 0 0 30.2 0 352 352 0 0 1-.5 42.2v.6c13 .5 26 1.7 38.7 3.5a377.3 377.3 0 0 0 .6-50ZM56 172.4c-4.4 0-8.8-.1-13.1-.3a365 365 0 0 1 13.1-64 365 365 0 0 1 13.2 64l-13.2.3Zm316-62.5c14.2 0 25 9.1 28.3 23.7 5-14.6 16.4-23.7 30.7-23.7 19.5 0 30.7 12.7 30.7 34.6v99h-36.5V155c0-10.1-3.3-14.8-9.9-14.8-8 0-12.2 7-12.2 21.3v82.2h-36.4V155c0-10.1-3.4-14.8-10-14.8-8 0-11.9 7-11.9 21.6v82h-36.6V112h30.1l3.4 23.1c3.4-15.5 14.8-25.2 30.2-25.2Zm-125.2 0c-31.5 0-49.1 24.5-49.1 68 0 43.4 17.6 67.8 49.1 67.8s49.5-24.4 49.5-67.9c0-43.4-18-67.9-49.5-67.9Zm0 109.3c-9.3 0-13.2-11.2-13.2-41.4 0-30.1 3.6-41.6 13.2-41.6 9.7 0 13.3 11.2 13.3 41.6 0 30.5-3.7 41.4-13.3 41.4Zm-71.9-3.9c4.1 0 7.5-1.3 11.7-4.7l5 26.3c-7.4 5.4-17 8.8-27.1 8.8-21.9 0-34.4-13-34.4-35.9v-71h-10.4V112H130V86.8l36.4-5.8v31h21.9v26.8h-21.9V205c0 7 2.4 10.2 8.4 10.2Zm888.5-37.5c0 30.5-3.7 41.4-13.3 41.4-9.4 0-13.3-11.4-13.3-41.4 0-30.1 3.7-41.6 13.3-41.6 9.6 0 13.3 10.7 13.3 41.6Zm-107.5 0c0 30.5-3.6 41.4-13.3 41.4-9.3 0-13.2-11.4-13.2-41.4 0-30.1 3.6-41.6 13.2-41.6 9.7 0 13.3 10.7 13.3 41.6Z"/><path fill="#fff" fill-rule="evenodd" d="M536.8 0a18.3 18.3 0 0 0-18.3 18.3v283.4c0 10.1 8.2 18.3 18.3 18.3h625.3c6.4 0 12.3-3.3 15.6-8.8l85.5-141.8c3.5-5.8 3.5-13 0-18.8L1177.7 8.8a18.3 18.3 0 0 0-15.6-8.8H536.8Zm248.3 243.7V60h36.7v69.7A28.8 28.8 0 0 1 850 110c19.8 0 30.7 13 30.7 36v97.8h-36.4v-89.3c0-9.6-3.4-14.3-9.9-14.3-8.3 0-12.7 7.8-12.7 21.6v82H785Zm368.8-26.8c2.1 0 3.7-.6 5.8-1.9l1.8 25.5a41 41 0 0 1-20.3 5c-19.5 0-29.4-10.2-29.4-30.7V60h36.4v150c0 4.4 1.8 6.8 5.7 6.8Zm-54.4-39c0-43.5-18-68-49.4-68-31.5 0-49.2 24.5-49.2 68 0 43.4 17.7 67.8 49.2 67.8 31.5 0 49.4-24.4 49.4-67.9Zm-107.4 0c0-43.5-18-68-49.5-68s-49.1 24.5-49.1 68c0 43.4 17.6 67.8 49.1 67.8s49.5-24.4 49.5-67.9Zm-260.9 67.8c-30.2 0-47.6-24.7-47.6-68.1 0-42.4 17.7-67.7 47.6-67.7 25.2 0 40.6 16.2 41.9 44.3l-31.2 5.2c-.3-15.6-3.4-22.7-10-22.7-8.5 0-12.4 11.7-12.4 40.9 0 29.1 3.9 41 12.5 41 6.2 0 9.4-7.2 10.1-22.8l31.3 6.8c-2.4 27-18 43.1-42.2 43.1Zm-55.7-48.6c0 14.3-5 26-14.6 35.1a51.2 51.2 0 0 1-36.6 13.5c-30.5 0-50.8-20-51-51.2l32-8.9c-.3 18.5 7 30.5 18.7 30.5 9.4 0 14.8-5.7 14.8-15.9 0-4.4-1.5-8.8-4.6-12.7a97.3 97.3 0 0 0-20.3-17.2c-15.4-10.4-25.5-19.5-30.5-27.3-5-8-7.3-17-7.3-26.8 0-14.3 4.7-25.8 14-34.9a49.5 49.5 0 0 1 36.2-13.5c29.4 0 47.1 18 48.2 48.4l-32 7c0-15.9-6.3-26-15.9-26-8.6 0-14.3 6-14.3 15.3a20 20 0 0 0 4.4 11.7 104 104 0 0 0 19.5 16c15.9 10.8 26.3 20.5 31.5 28.8a52 52 0 0 1 7.8 28Z" clip-rule="evenodd"/></svg>