<svg xmlns="http://www.w3.org/2000/svg" width="1124" height="320" fill="none"><path fill="#2986FF" fill-rule="evenodd" d="M532.6 67.6c-8.3 2-14 9.3-14 17.8v216.3c0 10.1 8.1 18.3 18.2 18.3H1105c10.1 0 18.3-8.2 18.3-18.3V85.4c0-8.5-5.8-15.9-14-17.8L830.8 1.2a42.8 42.8 0 0 0-19.8 0L532.6 67.6Zm115.3 129.6h-34.6v72.6H576V95.9h37.3v70.5h34.6V96h37.4v173.9H648v-72.6Zm150.1 6.7c0-43.4-17.9-67.9-49.4-67.9s-49.2 24.5-49.2 68c0 43.4 17.7 67.8 49.2 67.8 31.5 0 49.4-24.4 49.4-67.9Zm-36.1 0c0 30.5-3.7 41.4-13.3 41.4-9.4 0-13.3-11.5-13.3-41.4 0-30.2 3.7-41.6 13.3-41.6 9.6 0 13.3 10.7 13.3 41.6ZM875 136c14.3 0 25 9.1 28.4 23.7 5-14.6 16.4-23.7 30.7-23.7 19.5 0 30.7 12.8 30.7 34.6v99.2h-36.5V181c0-10.1-3.3-14.8-9.8-14.8-8.1 0-12.3 7-12.3 21.3v82.3H870V181c0-10.1-3.4-14.8-9.9-14.8-8 0-12 7-12 21.6v82h-36.7V138h30.2l3.4 23.1c3.4-15.6 14.8-25.2 30.2-25.2Zm151.3 109.3c6.5 0 10.4-6.8 11.4-20.3l31.2 6c-3.9 25.7-19.5 40.8-42.6 40.8-31 0-48.7-25-48.7-67.9 0-42.4 18.2-67.9 49.2-67.9 27 0 43.2 21 43.2 55.4 0 5.5-.5 12-1.6 20h-56.2c-.3 22.2 4.7 33.9 14 33.9Zm0-83c-8.4 0-13 10.4-13.8 29.1h24.7c.3-1.3.3-2.3.3-5.4 0-15.7-4-23.7-11.2-23.7Z" clip-rule="evenodd"/><path fill="#2986FF" d="M109.8 219.4A362.8 362.8 0 0 0 82.3 99a377.8 377.8 0 0 0-54.3.1A362.4 362.4 0 0 0 1.2 269.6c13.2-2 26.6-3.2 40.2-3.7v-.6a371.1 371.1 0 0 1-.5-42.3 358.2 358.2 0 0 0 30.2 0 352.3 352.3 0 0 1-.5 42.3v.6c13 .5 26 1.7 38.7 3.5a371 371 0 0 0 .6-50ZM56 198.6c-4.4 0-8.8-.1-13.1-.3A368 368 0 0 1 56 134.2c6.2 20.7 10.7 42 13.2 64.1l-13.2.3ZM372 136c14.2 0 25 9.2 28.3 23.7 5-14.5 16.4-23.6 30.7-23.6 19.5 0 30.7 12.7 30.7 34.6v99h-36.5v-88.6c0-10.2-3.4-14.8-9.9-14.8-8 0-12.2 7-12.2 21.3v82.2h-36.4v-88.7c0-10.2-3.4-14.8-10-14.8-8 0-11.9 7-11.9 21.6v82h-36.7V138.1h30.2l3.4 23.1c3.4-15.6 14.8-25.2 30.2-25.2Zm-125.2 0c-31.5 0-49.2 24.5-49.2 68 0 43.4 17.7 67.9 49.2 67.9 31.5 0 49.4-24.5 49.4-68 0-43.4-17.9-67.8-49.4-67.8Zm0 109.3c-9.3 0-13.2-11.2-13.2-41.3 0-30.2 3.6-41.6 13.2-41.6 9.7 0 13.3 11.1 13.3 41.6 0 30.4-3.7 41.3-13.3 41.3Zm-71.9-3.9c4.1 0 7.5-1.3 11.7-4.6l5 26.2c-7.4 5.5-17 8.9-27.1 8.9-21.9 0-34.4-13-34.4-36v-71h-10.4v-26.7H130V113l36.4-5.7v31h21.9V165h-21.9v66.4c0 7 2.4 10.1 8.4 10.1Z"/></svg>