<svg xmlns="http://www.w3.org/2000/svg" width="350" height="96" fill="none" viewBox="0 0 350 96">
  <path fill="#F74E4E" d="M234.24 93.45a2.2 2.2 0 01-2.23 2.17h-96.44a2.21 2.21 0 01-2.21-2.21c0-26.7 23.3-48.29 50.44-48.29 27.14 0 50.44 21.46 50.44 48.16v.17zm-9.95-53.35a9.93 9.93 0 100-19.86 9.93 9.93 0 000 19.86z"/>
  <path fill="#FFB71B" d="M86.58 93.38a2.23 2.23 0 01-2.23 2.23H2.83A2.23 2.23 0 01.6 93.38c.01-.44.15-.87.39-1.24l40.73-70.9a2.43 2.43 0 011.87-1 2.23 2.23 0 011.84 1l40.76 70.9c.25.37.39.8.39 1.24z"/>
  <path fill="#4FBF5E" d="M347.36 20.24c-.4 0-.8.14-1.11.39L297.7 56.61c-.33.24-.73.37-1.14.36-.37 0-.73-.1-1.02-.32h-.15l-48.14-35.9a1.9 1.9 0 00-1.06-.36 2.14 2.14 0 00-2.02 2.23v70.79a2.12 2.12 0 002.02 2.2h101.17a2.13 2.13 0 002.04-2.2V22.47a2.16 2.16 0 00-2.04-2.23z"/>
  <path fill="#71C5FF" d="M136.07 20.36H124.4a1.12 1.12 0 01-1.1-1.11V2.62a2.23 2.23 0 00-2.25-2.24H98.74a2.23 2.23 0 00-2.23 2.24V93.4a2.23 2.23 0 002.23 2.2h22.3a2.23 2.23 0 002.24-2.2V48.25a1.1 1.1 0 01.31-.78 1.09 1.09 0 01.78-.33h11.7a2.23 2.23 0 002.24-2.24V22.6a2.23 2.23 0 00-2.24-2.24z"/>
</svg>
