<svg xmlns="http://www.w3.org/2000/svg" width="300" height="82" fill="#fff" viewBox="0 0 300 82">
  <path d="M200 80.1a2 2 0 01-.6 1.4 1.9 1.9 0 01-1.3.5H116a1.9 1.9 0 01-1.3-.6 2 2 0 01-.6-1.3C114 56.8 134 38 157 38s43 18.7 43 42zM192.5 34a8.5 8.5 0 10-8.5-8.5 8.5 8.5 0 008.5 8.5zM71.8 80.1a2 2 0 01-.5 1.3 1.9 1.9 0 01-1.3.6H1.7a1.9 1.9 0 01-1.3-.6 2 2 0 01-.6-1.3 2 2 0 01.4-1l34.3-60.3a2 2 0 01.7-.6 2 2 0 01.8-.2 1.9 1.9 0 011 .2 1.9 1.9 0 01.6.6l33.9 60.3a1.9 1.9 0 01.3 1zM298.3 17a1.6 1.6 0 00-1 .3l-41.5 31a1.5 1.5 0 01-1 .4 1.4 1.4 0 01-.9-.3l-41.3-31a1.6 1.6 0 00-.9-.3 1.8 1.8 0 00-1.2.6 1.9 1.9 0 00-.5 1.4v61a1.8 1.8 0 00.5 1.3 1.8 1.8 0 001.2.6h86.6a1.8 1.8 0 001.2-.6 1.9 1.9 0 00.5-1.3V18.9a1.9 1.9 0 00-.5-1.3 1.8 1.8 0 00-1.2-.6zM115 16h-10a1 1 0 01-1-1V2a2 2 0 000-.8 2 2 0 00-2-1.2H83a2 2 0 00-2 2v78a2 2 0 002 1.9h19a2 2 0 002-1.9V40.9a1 1 0 010-.4 1 1 0 01.9-.6H115a2 2 0 002-1.9V18a2 2 0 00-2-2z"/>
</svg>
