<svg xmlns="http://www.w3.org/2000/svg" xml:space="preserve" style="fill-rule:evenodd;clip-rule:evenodd;stroke-linejoin:round;stroke-miterlimit:2" viewBox="0 0 157 48"><path d="M42.208 46.127c.046-.1.031-.11-.045-.03-2.996 3.153-6.557 5.2-10.681 6.141a25.4 25.4 0 0 1-6.976.588c-4.49-.23-8.938-1.7-12.458-4.45-2.519-1.968-4.456-4.365-5.814-7.192a19.778 19.778 0 0 1-.629-1.421c-1.218-3.163-1.732-6.475-1.542-9.936.216-3.936 1.498-7.78 3.753-10.987a20.449 20.449 0 0 1 5.797-5.55 21.672 21.672 0 0 1 2.757-1.5 23.175 23.175 0 0 1 7.758-1.965 25.391 25.391 0 0 1 7.83.588c.667.157 1.304.34 1.91.549.468.161.953.34 1.455.537.311.122.605.274.912.414.72.326 1.445.715 2.172 1.165 2.794 1.73 5.038 4.02 6.733 6.868.098.164.3.532.605 1.103.185.346.326.715.493 1.075.436.945.781 2.04 1.07 3.12.093.348.171.695.235 1.04.045.24.09.474.135.701.106.536.152 1.083.214 1.625.033.291.058.6.073.928.026.584.04 1.014.04 1.293.002 2.819-.453 5.484-1.366 7.995a21.7 21.7 0 0 1-2.81 5.29c-.02.029-.016.052.012.072l8.412 5.874c.021.015.034.04.035.066a.083.083 0 0 1-.03.067l-8.823 7.33a.05.05 0 0 1-.039.011.047.047 0 0 1-.034-.019 7.29 7.29 0 0 0-.424-.504 691.658 691.658 0 0 1-4.737-5.247c-.018-.021-.018-.042 0-.063.297-.334.59-.652.882-.954.177-.183.338-.372.483-.567.206-.274.447-.536.647-.814a25.513 25.513 0 0 0 1.867-2.98c.045-.086.088-.172.128-.26v-.001Zm-13.715-.263c.732-.2 1.357-.46 1.875-.779.1-.06.2-.12.304-.177.265-.145.49-.345.73-.532.386-.304.723-.676 1.07-1.023.114-.116.182-.257.294-.376.08-.085.155-.177.226-.277.468-.663.848-1.313 1.14-1.949.696-1.518 1.13-3.118 1.389-4.774.31-1.992.41-4.098.3-6.316a26.29 26.29 0 0 0-.572-4.41c-.302-1.353-.724-2.577-1.266-3.672a11.817 11.817 0 0 0-1.129-1.825c-.176-.236-.37-.433-.563-.65a6.34 6.34 0 0 0-.436-.447c-1.416-1.319-3.154-2.053-5.212-2.203-1.376-.1-2.619.045-3.73.437-1.986.702-3.499 2.089-4.562 3.931a13.66 13.66 0 0 0-1.222 2.819 19.797 19.797 0 0 0-.72 3.326 32 32 0 0 0 .136 8.936c.228 1.479.649 3.066 1.208 4.36.363.835.765 1.573 1.206 2.21.403.583.92 1.156 1.554 1.718.335.297.724.574 1.166.83.455.262.91.472 1.363.63.967.331 1.98.502 3.002.508a8.877 8.877 0 0 0 2.449-.295Zm113.836-22.322h-3.547c-.029 0-.043-.014-.043-.042l.001-.892c0-.024.005-.048.014-.07a.188.188 0 0 1 .041-.056l11.929-10.924a.127.127 0 0 1 .092-.036h1.024c.029 0 .043.015.043.042l-.001 8.187c0 .027.014.04.042.041h8.011a.02.02 0 0 1 .02.02V23.5c0 .028-.014.042-.042.042h-7.922c-.084 0-.126.042-.126.126-.004 1.895-.005 3.79-.003 5.685l-.003.396a300.908 300.908 0 0 0-.015 5.54c.001.08-.021.16-.022.243-.009 1.63-.007 3.224.007 4.785.006.762.253 1.7.776 2.306.304.354.624.607.96.76.833.38 1.855.428 2.758.27a4.239 4.239 0 0 0 2.1-1.006c.158-.138.299-.3.421-.484a.936.936 0 0 1 .182-.2c.019-.017.038-.018.06-.006l1.48.884c.027.016.035.038.025.068-.755 2.173-1.999 4.27-3.919 5.578-1.826 1.244-3.98 1.68-6.184 1.554-1.219-.07-2.339-.322-3.359-.754-2.022-.859-3.429-2.294-4.22-4.304a9.836 9.836 0 0 1-.673-3.098 39.341 39.341 0 0 1-.03-2.616c.01-.602.017-1.158.022-1.666l.127-12.863c.005-.388.026-.788.01-1.164-.001-.023-.013-.034-.036-.034ZM93.578 33.49c.01 1.799.312 3.624 1.05 5.258a7.963 7.963 0 0 0 2.211 2.913c1.617 1.335 3.773 1.87 5.812 1.772 2.29-.11 4.207-.955 5.75-2.533.536-.548 1.006-1.212 1.411-1.993.059-.114.085-.236.153-.341.017-.026.039-.034.068-.023l2.185.82a.08.08 0 0 0 .051.002l.037-.01c.012-.002.018.003.019.014.008.144-.059.232-.095.357-.256.885-.622 1.81-1.099 2.775a14.912 14.912 0 0 1-1.94 2.989 12.336 12.336 0 0 1-5.492 3.801c-1.319.46-2.752.714-4.297.759-1.23.041-2.46-.046-3.672-.257a15.205 15.205 0 0 1-6.036-2.464c-3.01-2.072-4.977-5.366-5.656-8.948a18.626 18.626 0 0 1-.29-4.57c.143-2.447.726-4.678 1.748-6.696a15.28 15.28 0 0 1 2.1-3.092c.361-.417.749-.809 1.161-1.175 2.45-2.165 5.304-3.415 8.566-3.748a15.376 15.376 0 0 1 2.756-.017c1.219.095 2.405.336 3.559.723.345.117.667.272 1.004.407.35.14.679.332 1.023.514.48.254.914.58 1.357.9.098.071.193.152.286.242.124.12.277.2.401.325.38.384.801.754 1.126 1.19.202.27.42.52.607.802.498.743.871 1.39 1.119 1.939a16.479 16.479 0 0 1 1.356 5.013c.072.669-.096 1.274-.588 1.736-.398.375-.889.562-1.473.562H93.631c-.036 0-.054.019-.053.055v-.001Zm8.387-9.138c-.76-1.332-2.187-2.003-3.713-1.84-2.277.243-3.554 2.534-4.092 4.522-.238.881-.392 1.78-.46 2.697-.001.02.006.04.019.055a.072.072 0 0 0 .053.023c1.76.005 3.406.004 4.937-.003.418-.001.824-.03 1.218-.085.281-.039.551-.1.808-.184.984-.318 1.618-1.04 1.795-2.09a4.697 4.697 0 0 0-.165-2.236 4.69 4.69 0 0 0-.4-.859ZM70.557 44.71c0-.057-.016-.062-.046-.013a12.96 12.96 0 0 1-2.497 2.962 9.093 9.093 0 0 1-4.85 2.225c-2.627.364-5.262-.108-7.386-1.671-2.552-1.878-3.602-5.004-3.605-8.096-.005-4.2-.007-8.348-.005-12.443 0-.287-.019-.574-.034-.86-.033-.627-.303-1.2-.735-1.758l-2.145-2.77a.13.13 0 0 1-.027-.078v-.937c0-.013.007-.02.02-.023l12.56-2.16c.027-.004.04.007.04.034.002 6.562.001 12.92-.001 19.072 0 1.69.351 3.31 1.737 4.426.66.534 1.564.78 2.405.762.693-.015 1.446-.154 2.066-.472.261-.135.53-.25.771-.417.465-.32.89-.706 1.276-1.156.14-.163.286-.366.44-.607a.157.157 0 0 0 .025-.086c.004-4.506.003-9.028-.003-13.565 0-.78-.273-1.4-.75-2.022a517.08 517.08 0 0 0-2.128-2.753.188.188 0 0 1-.038-.114v-.919c0-.012.009-.022.02-.024l12.517-2.152c.043-.007.063.01.063.053 0 8.422.004 16.219.015 23.39 0 .489.085.912.253 1.27.129.273.368.612.718 1.016.752.867 1.448 1.66 2.089 2.376a.126.126 0 0 1 .033.089v.918a.056.056 0 0 1-.013.035.056.056 0 0 1-.032.017l-12.68 1.798-.008.001a.059.059 0 0 1-.058-.058v-.001c.01-1.875.007-3.637-.007-5.288v-.001Zm52.354-20.475c-.362.669-.45 1.409-.264 2.22.058.255.174.505.347.749.165.233.35.434.555.604.843.694 1.892 1.134 2.911 1.51 1.102.404 2.184.796 3.247 1.177.868.31 1.777.718 2.725 1.223 2.179 1.16 3.895 2.797 4.585 5.165.19.653.303 1.331.338 2.035a12.19 12.19 0 0 1-.21 3.026c-.101.496-.239.983-.412 1.458-.732 2.01-2.098 3.628-3.954 4.747-.294.177-.605.368-.914.497-.315.13-.606.292-.933.412a14.866 14.866 0 0 1-4.311.902c-1.781.102-3.711-.011-5.79-.338a36.58 36.58 0 0 1-5.693-1.358c-.028-.009-.043-.028-.044-.058l-.349-8.986c-.001-.037.017-.056.053-.056h.912c.031 0 .062.011.086.031.072.059.14.124.203.195 1.248 1.408 2.5 2.813 3.756 4.214a13.707 13.707 0 0 0 1.591 1.513c.352.287.728.54 1.128.762 1.15.636 2.402.787 3.708.708.35-.021.695-.086 1.028-.196 1-.329 1.697-.908 2.092-1.736.377-.793.437-1.646.177-2.56-.244-.86-1.267-1.608-2.056-2.01a21.819 21.819 0 0 0-2.061-.92 462.324 462.324 0 0 1-3.377-1.318c-2.106-.833-4.281-2.158-5.57-4.073-.891-1.323-1.347-2.825-1.367-4.505-.01-.617.027-1.234.109-1.845a9.229 9.229 0 0 1 1.573-4.034c.107-.156.223-.305.347-.447.177-.198.323-.422.513-.605.785-.754 1.593-1.348 2.424-1.783 1.946-1.015 4.246-1.478 6.572-1.465 1.506.008 3.051.15 4.636.426 1.528.267 3.014.623 4.455 1.068.041.009.07.046.069.088l.344 8.095c.002.03-.012.045-.042.045h-.963a.119.119 0 0 1-.093-.041 296.471 296.471 0 0 0-3.311-3.601 12.191 12.191 0 0 0-1.945-1.698c-1.062-.738-2.315-1.014-3.596-.98-1.33.036-2.588.557-3.229 1.743Z" style="fill:#185337;fill-rule:nonzero" transform="translate(-4.025 -9.743)"/></svg>
