<svg xmlns="http://www.w3.org/2000/svg" width="1000" height="306" fill="none"><path fill="#fff" d="M493.7 224.3c-6-7-6.4-9.7-6.4-16.8V59.7L407 73.6v6.3l12.7 16.5c5.6 7 6 10 6 17.2v84.1A35.5 35.5 0 0 1 396 215c-14.2 0-26.2-10.4-26.2-32.5V59.7l-80.4 13.8V80L302 96.3c5.6 7.1 6 10.1 6 17.2v79.3c0 44.9 29.2 64.4 59.5 64.4 27.3 0 44.5-13.5 58-34.4v34.8l81.6-11.6v-6.4l-13.5-15.3ZM677 184a52.7 52.7 0 0 1-49.4 31.3c-31.4 0-55-20.9-55.3-64h104.6c7.4 0 13.3-6.4 12.5-13.8-5-48.1-36.6-78.2-83.8-78.2-47.3 0-96.2 37.8-96.2 101.8 0 58.4 40.8 96.5 96.9 96.5 46.8 0 74.4-29.5 85.7-68.1l-15-5.6ZM604.8 81.3c16.5 0 25.1 13.8 25.1 27 0 13-7.5 19.8-23.5 19.8H573c2.2-28.8 14.6-46.8 31.8-46.8Zm192 49.1-8.3-3c-22.8-7.8-31.4-13.8-31.4-25.7 0-10.9 9-20.3 23.6-20.3 15.3 0 23.2 5.3 35.6 18l20.5 22.4h6.8l-2.2-52.4a205.9 205.9 0 0 0-58.8-9.7c-42.6 0-73.3 23.6-73.3 63.6 0 31 21 47.6 48.6 58l8.6 3.4c27.4 10.1 36 15.7 36 28.8 0 12.4-9.4 22.1-25.1 22.1-14.6 0-24-3.8-39-20.2L714.3 188h-6.8l2.2 58a221 221 0 0 0 65.9 11.2c41.9 0 76.3-22 76.3-66.6 0-33-21-48.7-55-60.3Zm193 75.3a26.7 26.7 0 0 1-23.5 11.5c-13 0-22.8-7-22.4-25l.3-104h51.6v-24h-51.6V11.4h-7l-76.8 70.4V88h23.2l-1.1 110.4c-.4 41.9 27.3 59.1 57.2 59.1 26.2 0 48.7-12.4 60.3-46l-10.1-6ZM190.6 7.8A156 156 0 0 0 141 0C61 0 0 58.4 0 137l.1 5.6c.1 2.4.2 4.8.5 7.2 4 50.9 32 91 73.4 111.3l3.4 1.6a151 151 0 0 0 61.8 12.9 154 154 0 0 0 57.3-10.7 134.2 134.2 0 0 0 71.3-69 143.3 143.3 0 0 0 12.3-48 153.8 153.8 0 0 0 .5-12.7c0-61.4-36-109.3-90-127.3ZM203 141.7v.1c0 2.4 0 4.7-.2 6.9-2.5 52.5-24.8 83.9-61.1 84h-.4c-40.6 0-61.2-33.8-63.7-87l-.2-5.3v-5.8c0-46.1 14.6-77.8 41-88.2l2.4-.8a56.4 56.4 0 0 1 18.3-2.9c43 0 64 37.8 64 95.8v3.3-.1Z"/><path fill="#fff" d="M308.3 258 250 217.3a133.5 133.5 0 0 1-32.2 51l33.5 37.1 57-47.4Z"/></svg>